<svg width="34" height="34" viewBox="0 0 34 34" fill="none" xmlns="http://www.w3.org/2000/svg">
<path d="M17 2.83299C14.198 2.83279 11.4588 3.66351 9.12894 5.22008C6.79906 6.77665 4.98308 8.98916 3.91066 11.5778C2.83824 14.1665 2.55755 17.015 3.10407 19.7632C3.65059 22.5114 4.99979 25.0358 6.98104 27.0172C8.96229 28.9986 11.4866 30.348 14.2348 30.8947C16.9829 31.4414 19.8315 31.1609 22.4202 30.0887C25.009 29.0165 27.2216 27.2006 28.7783 24.8709C30.3351 22.5411 31.166 19.802 31.166 17C31.1647 13.2432 29.6718 9.64074 27.0154 6.98423C24.3591 4.32772 20.7567 2.83458 17 2.83299Z" fill="#707070"/>
<path d="M15.583 9.916H18.416V12.749H15.583V9.916ZM15.583 15.583H18.416V24.083H15.583V15.583Z" fill="white"/>
</svg>
